# xmcd CD database file
# Copyright (C) 1993-1998 Ti Kan
# 
# Track frame offsets:
#     150
#     23693
#     41713
#     59761
#     79223
#     92053
#     110972
#     132146
#     150256
#     167133
#     182638
#     206442
# 
# Disc length: 2959 seconds
# 
# Revision: 1
# Processed by: cddbd v1.4b41PL1 Copyright (c) Steve Scherf et al.
# Submitted via: DiscPlay 4.0.4
# 
DISCID=9e0b8d0c
DTITLE=Johnny Adams and Ron Cooley - Heartland
DYEAR=1900
DGENRE=
TTITLE0=Open Road
TTITLE1=City Lights
TTITLE2=Raetta Mae
TTITLE3=Return My Call
TTITLE4=Anytime
TTITLE5=Yella Dog
TTITLE6=All of Me
TTITLE7=Big Muddy Mo
TTITLE8=Pickin' Up Pieces
TTITLE9=(Just) Hang On
TTITLE10=Sunset Speedway
TTITLE11=Like Eagles Fly
EXTD=
EXTT0=
EXTT1=
EXTT2=
EXTT3=
EXTT4=
EXTT5=
EXTT6=
EXTT7=
EXTT8=
EXTT9=
EXTT10=
EXTT11=
PLAYORDER=
